<svg xmlns="http://www.w3.org/2000/svg" width="1920" height="1080" viewBox="0 0 1920 1080" role="img" aria-label="校园影像 · 数据中枢">
  <defs>
    <linearGradient id="s3bg" x1="0" y1="0" x2="1" y2="1">
      <stop offset="0%" stop-color="#04101a"/>
      <stop offset="55%" stop-color="#06283d"/>
      <stop offset="100%" stop-color="#041c2e"/>
    </linearGradient>
    <radialGradient id="s3glow" cx="60%" cy="20%" r="55%">
      <stop offset="0%" stop-color="#22d3ee" stop-opacity="0.42"/>
      <stop offset="50%" stop-color="#0ea5e9" stop-opacity="0.12"/>
      <stop offset="100%" stop-color="#0ea5e9" stop-opacity="0"/>
    </radialGradient>
    <filter id="s3blur"><feGaussianBlur stdDeviation="44"/></filter>
  </defs>
  <rect width="1920" height="1080" fill="url(#s3bg)"/>
  <rect width="1920" height="1080" fill="url(#s3glow)"/>
  <g filter="url(#s3blur)" opacity="0.5">
    <circle cx="1450" cy="760" r="240" fill="#0891b2" fill-opacity="0.4"/>
    <circle cx="360" cy="280" r="200" fill="#0e7490" fill-opacity="0.34"/>
  </g>
  <g stroke="#9fe9ff" stroke-opacity="0.16" stroke-width="1.5" fill="none">
    <circle cx="960" cy="540" r="120"/><circle cx="960" cy="540" r="240"/><circle cx="960" cy="540" r="360"/>
  </g>
  <g fill="#bdeeff" fill-opacity="0.7">
    <circle cx="960" cy="420" r="7"/><circle cx="1200" cy="540" r="7"/><circle cx="960" cy="780" r="7"/>
    <circle cx="720" cy="540" r="7"/><circle cx="1130" cy="370" r="5"/><circle cx="790" cy="710" r="5"/>
  </g>
  <g stroke="#bdeeff" stroke-opacity="0.22" stroke-width="1.5">
    <line x1="960" y1="420" x2="1200" y2="540"/><line x1="1200" y1="540" x2="960" y2="780"/>
    <line x1="960" y1="780" x2="720" y2="540"/><line x1="720" y1="540" x2="960" y2="420"/>
  </g>
</svg>
