<svg xmlns="http://www.w3.org/2000/svg" width="1920" height="1080" viewBox="0 0 1920 1080" role="img" aria-label="校园影像 · 暮色校园">
  <defs>
    <linearGradient id="s4bg" x1="0" y1="0" x2="1" y2="1">
      <stop offset="0%" stop-color="#0b0a14"/>
      <stop offset="50%" stop-color="#231326"/>
      <stop offset="100%" stop-color="#120b1e"/>
    </linearGradient>
    <radialGradient id="s4glow" cx="78%" cy="72%" r="58%">
      <stop offset="0%" stop-color="#fb923c" stop-opacity="0.4"/>
      <stop offset="45%" stop-color="#f472b6" stop-opacity="0.12"/>
      <stop offset="100%" stop-color="#f472b6" stop-opacity="0"/>
    </radialGradient>
    <filter id="s4blur"><feGaussianBlur stdDeviation="50"/></filter>
  </defs>
  <rect width="1920" height="1080" fill="url(#s4bg)"/>
  <rect width="1920" height="1080" fill="url(#s4glow)"/>
  <g filter="url(#s4blur)" opacity="0.5">
    <circle cx="1480" cy="760" r="250" fill="#fb923c" fill-opacity="0.32"/>
    <circle cx="430" cy="320" r="210" fill="#7c3aed" fill-opacity="0.34"/>
  </g>
  <g fill="#1a1228" opacity="0.85">
    <rect x="120" y="640" width="150" height="440"/><rect x="300" y="560" width="120" height="520"/>
    <rect x="450" y="700" width="170" height="380"/><rect x="650" y="600" width="110" height="480"/>
    <rect x="1280" y="660" width="140" height="420"/><rect x="1450" y="560" width="120" height="520"/>
    <rect x="1600" y="700" width="180" height="380"/>
  </g>
  <g fill="#ffd9a8" fill-opacity="0.6">
    <rect x="150" y="690" width="14" height="20"/><rect x="200" y="760" width="14" height="20"/>
    <rect x="330" y="620" width="12" height="18"/><rect x="1490" y="630" width="12" height="18"/>
    <rect x="1640" y="760" width="14" height="20"/><rect x="1690" y="830" width="14" height="20"/>
  </g>
  <circle cx="1500" cy="300" r="60" fill="#ffe6c2" fill-opacity="0.5"/>
</svg>
